<svg xmlns="http://www.w3.org/2000/svg" viewBox="0 0 42.89 42.89"><defs><style>.cls-1{fill:#646464;}</style></defs><title>アセット 4</title><g id="レイヤー_2" data-name="レイヤー 2"><g id="レイヤー_1-2" data-name="レイヤー 1"><path class="cls-1" d="M35.47,10a2.57,2.57,0,1,0-2.57,2.57h0A2.57,2.57,0,0,0,35.47,10m-14,18.59a7.15,7.15,0,1,1,7.15-7.15h0a7.15,7.15,0,0,1-7.15,7.15m0-18.16a11,11,0,1,0,11,11,11,11,0,0,0-11-11h0M21.45,0c-5.82,0-6.55,0-8.84.13a15.73,15.73,0,0,0-5.2,1A10.51,10.51,0,0,0,3.6,3.6,10.51,10.51,0,0,0,1.13,7.4a15.74,15.74,0,0,0-1,5.21C0,14.89,0,15.62,0,21.45S0,28,.13,30.29a15.74,15.74,0,0,0,1,5.21,10.51,10.51,0,0,0,2.47,3.8,10.52,10.52,0,0,0,3.8,2.47,15.74,15.74,0,0,0,5.2,1c2.29.11,3,.13,8.84.13s6.55,0,8.84-.13a15.75,15.75,0,0,0,5.2-1,11,11,0,0,0,6.27-6.27,15.75,15.75,0,0,0,1-5.21c.1-2.29.13-3,.13-8.84s0-6.55-.13-8.84a15.75,15.75,0,0,0-1-5.21,10.51,10.51,0,0,0-2.47-3.8,10.51,10.51,0,0,0-3.8-2.47,15.73,15.73,0,0,0-5.21-1C28,0,27.27,0,21.45,0m0,3.86c5.72,0,6.41,0,8.67.13a11.85,11.85,0,0,1,4,.74,6.64,6.64,0,0,1,2.46,1.6,6.65,6.65,0,0,1,1.6,2.46,12,12,0,0,1,.74,4C39,15,39,15.72,39,21.45s0,6.41-.13,8.67a11.83,11.83,0,0,1-.74,4,7.11,7.11,0,0,1-4.06,4.07,12,12,0,0,1-4,.74c-2.26.1-2.94.13-8.67.13s-6.41,0-8.67-.13a11.92,11.92,0,0,1-4-.74,6.65,6.65,0,0,1-2.46-1.6,6.64,6.64,0,0,1-1.6-2.46,12,12,0,0,1-.74-4c-.1-2.26-.13-2.94-.13-8.67S3.9,15,4,12.78a11.67,11.67,0,0,1,.73-4,6.64,6.64,0,0,1,1.6-2.46A6.65,6.65,0,0,1,8.8,4.73a12,12,0,0,1,4-.74c2.26-.1,2.94-.13,8.67-.13"/></g></g></svg>