<svg xmlns="http://www.w3.org/2000/svg" viewBox="0 0 47.56 38.65"><defs><style>.cls-1{fill:#646464;}</style></defs><title>アセット 3</title><g id="レイヤー_2" data-name="レイヤー 2"><g id="レイヤー_1-2" data-name="レイヤー 1"><path class="cls-1" d="M47.56,4.58A19.49,19.49,0,0,1,42,6.11,9.78,9.78,0,0,0,46.25.71a19.51,19.51,0,0,1-6.19,2.37A9.77,9.77,0,0,0,23.42,12,27.69,27.69,0,0,1,3.31,1.78a9.77,9.77,0,0,0,3,13,9.72,9.72,0,0,1-4.42-1.22v.12a9.77,9.77,0,0,0,7.83,9.57,9.83,9.83,0,0,1-2.57.34,9.69,9.69,0,0,1-1.84-.18,9.77,9.77,0,0,0,9.11,6.78A19.57,19.57,0,0,1,2.33,34.41,20.14,20.14,0,0,1,0,34.27a27.64,27.64,0,0,0,15,4.38c17.95,0,27.76-14.87,27.76-27.76,0-.42,0-.84,0-1.26A19.87,19.87,0,0,0,47.56,4.58Z"/></g></g></svg>